<svg xmlns="http://www.w3.org/2000/svg" xmlns:xlink="http://www.w3.org/1999/xlink" width="24px" height="24px" viewBox="0 0 24 24" version="1.1">
<g id="surface1">
<path style=" stroke:none;fill-rule:evenodd;fill:rgb(0%,0%,0%);fill-opacity:1;" d="M 7.597656 1.644531 C 7.023438 1.644531 6.484375 1.722656 6.015625 1.90625 C 5.128906 2.257812 4.632812 2.945312 4.546875 3.957031 C 4.359375 6.21875 4.78125 6.777344 5.269531 7.429688 C 5.566406 7.820312 5.898438 8.265625 6.101562 9.105469 C 6.332031 10.058594 6.339844 10.785156 6.347656 11.558594 C 6.351562 11.921875 6.355469 12.296875 6.382812 12.714844 C 6.460938 13.859375 6.753906 16.621094 7.800781 17.476562 C 8.042969 17.675781 8.308594 17.753906 8.609375 17.710938 C 8.648438 17.707031 9.414062 17.570312 9.753906 17.074219 C 9.910156 16.851562 9.957031 16.589844 9.894531 16.277344 C 9.894531 16.273438 9.894531 16.273438 9.894531 16.273438 C 9.261719 12.703125 10.113281 10.722656 11.125 10.058594 C 11.679688 9.691406 12.316406 9.691406 12.871094 10.058594 C 13.878906 10.722656 14.730469 12.703125 14.097656 16.273438 C 14.097656 16.273438 14.097656 16.273438 14.097656 16.277344 C 14.035156 16.589844 14.082031 16.851562 14.238281 17.078125 C 14.582031 17.574219 15.34375 17.707031 15.382812 17.710938 C 15.683594 17.753906 15.949219 17.675781 16.195312 17.476562 C 17.242188 16.621094 17.53125 13.859375 17.609375 12.714844 C 17.636719 12.296875 17.640625 11.921875 17.644531 11.558594 C 17.652344 10.785156 17.660156 10.058594 17.890625 9.105469 C 18.09375 8.265625 18.433594 7.820312 18.730469 7.429688 C 19.226562 6.777344 19.652344 6.21875 19.445312 3.960938 C 19.347656 2.90625 18.851562 2.171875 17.972656 1.785156 C 17.210938 1.445312 16.164062 1.386719 15.035156 1.617188 C 14.101562 1.804688 13.191406 2.175781 12.484375 2.644531 C 12.917969 2.894531 13.296875 3.164062 13.601562 3.441406 C 13.679688 3.511719 13.683594 3.636719 13.613281 3.714844 C 13.539062 3.792969 13.417969 3.800781 13.335938 3.726562 C 12.199219 2.695312 9.675781 1.644531 7.597656 1.644531 Z M 8.460938 18.113281 C 8.128906 18.113281 7.824219 18 7.554688 17.777344 C 6.429688 16.863281 6.09375 14.226562 5.996094 12.738281 C 5.96875 12.3125 5.960938 11.929688 5.957031 11.5625 C 5.949219 10.8125 5.941406 10.105469 5.722656 9.195312 C 5.539062 8.433594 5.246094 8.042969 4.960938 7.664062 C 4.445312 6.980469 3.957031 6.332031 4.160156 3.925781 C 4.257812 2.769531 4.847656 1.945312 5.875 1.542969 C 6.90625 1.136719 8.367188 1.164062 9.988281 1.613281 C 10.738281 1.824219 11.464844 2.105469 12.101562 2.4375 C 13.644531 1.328125 16.339844 0.636719 18.128906 1.425781 C 19.132812 1.871094 19.722656 2.734375 19.832031 3.925781 C 20.054688 6.332031 19.5625 6.980469 19.039062 7.664062 C 18.75 8.042969 18.453125 8.4375 18.269531 9.195312 C 18.050781 10.105469 18.042969 10.8125 18.035156 11.5625 C 18.03125 11.929688 18.027344 12.3125 17.996094 12.738281 C 17.898438 14.226562 17.5625 16.863281 16.4375 17.777344 C 16.109375 18.046875 15.734375 18.15625 15.324219 18.097656 C 15.324219 18.097656 15.324219 18.097656 15.320312 18.097656 C 15.285156 18.09375 14.363281 17.941406 13.917969 17.300781 C 13.703125 16.988281 13.632812 16.617188 13.714844 16.203125 C 14.316406 12.816406 13.519531 10.953125 12.65625 10.382812 C 12.230469 10.101562 11.761719 10.101562 11.335938 10.382812 C 10.472656 10.953125 9.675781 12.816406 10.277344 16.203125 C 10.359375 16.617188 10.292969 16.988281 10.074219 17.300781 C 9.628906 17.941406 8.710938 18.09375 8.671875 18.097656 C 8.667969 18.097656 8.667969 18.097656 8.667969 18.097656 C 8.597656 18.109375 8.527344 18.113281 8.460938 18.113281 Z M 8.460938 18.113281 "/>
<path style=" stroke:none;fill-rule:evenodd;fill:rgb(0%,0%,0%);fill-opacity:1;" d="M 7.792969 7.589844 C 7.746094 7.589844 7.699219 7.574219 7.660156 7.539062 C 6.886719 6.796875 6.5625 6.0625 6.691406 5.359375 C 6.910156 4.15625 8.367188 3.519531 8.425781 3.496094 C 8.527344 3.453125 8.640625 3.5 8.683594 3.597656 C 8.726562 3.695312 8.679688 3.8125 8.582031 3.851562 C 8.5625 3.859375 7.253906 4.4375 7.074219 5.429688 C 6.96875 5.996094 7.257812 6.613281 7.929688 7.257812 C 8.007812 7.332031 8.007812 7.453125 7.933594 7.53125 C 7.898438 7.570312 7.847656 7.589844 7.792969 7.589844 Z M 7.792969 7.589844 "/>
</g>
</svg>
